<svg width="61" height="28" viewBox="0 0 61 28" fill="none" xmlns="http://www.w3.org/2000/svg">
<path d="M0 27.761H15.5634C16.5623 23.4332 19.4544 19.8296 23.3205 17.8694L13.3235 5.26502C5.94813 10.2686 0.869962 18.4043 0 27.761Z" fill="#ACACAC"/>
<path d="M23.3205 17.8694C25.3333 16.8488 27.6102 16.2737 30.0214 16.2737C32.4325 16.2737 34.7094 16.8488 36.7222 17.8694L47.6765 5.26502C42.7778 1.94165 36.8656 0 30.5 0C24.1344 0 18.2222 1.94165 13.3235 5.26502L23.3205 17.8694Z" fill="#8F8D8D"/>
<path d="M44.4793 27.761H61C60.13 18.4043 55.0519 10.2686 47.6765 5.26502L36.7222 17.8694C40.5883 19.8296 43.4804 23.4332 44.4793 27.761Z" fill="#787878"/>
<path fill-rule="evenodd" clip-rule="evenodd" d="M40.9815 27.761H19.3271C20.2684 22.8595 24.7579 19.1455 30.1543 19.1455C35.5507 19.1455 40.0402 22.8595 40.9815 27.761Z" fill="#D9D9D9"/>
<path d="M50.3901 12.9704L39.7272 24.4106C39.0774 23.1784 38.6011 22.6153 37.334 21.5388L50.3901 12.9704Z" fill="#4F4F4F"/>
</svg>
