<svg width="27" height="27" viewBox="0 0 27 27" fill="none" xmlns="http://www.w3.org/2000/svg">
<mask id="mask0_724_1246" style="mask-type:alpha" maskUnits="userSpaceOnUse" x="0" y="0" width="27" height="27">
<circle cx="13.5" cy="13.5" r="13.5" fill="#3EA8A6"/>
</mask>
<g mask="url(#mask0_724_1246)">
<path fill-rule="evenodd" clip-rule="evenodd" d="M14.3594 13.8752H14.788C14.8593 13.8752 14.913 13.9406 14.8986 14.0107L14.3776 16.6158C14.376 16.6248 14.3732 16.6332 14.3693 16.6413C14.3511 16.6805 14.3113 16.7068 14.2665 16.7068H12.187C12.1334 16.7068 12.0869 16.6688 12.0759 16.6158L11.5549 14.0107C11.5411 13.9406 11.5947 13.8752 11.6661 13.8752H12.0941C12.0941 13.2498 12.6013 12.7426 13.2268 12.7426C13.8522 12.7426 14.3594 13.2498 14.3594 13.8752ZM13.2268 13.0258C12.7578 13.0258 12.3773 13.4061 12.3773 13.8752H14.0762C14.0762 13.4061 13.6957 13.0258 13.2268 13.0258Z" fill="#2D2C2C"/>
<path d="M8.54834 8.28316C8.54834 8.12677 8.67511 8 8.8315 8V8C8.98788 8 9.11465 8.12677 9.11465 8.28316V9.98209C9.11465 10.1385 8.98788 10.2652 8.8315 10.2652V10.2652C8.67511 10.2652 8.54834 10.1385 8.54834 9.98209V8.28316Z" fill="#2D2C2C"/>
<path d="M9.39795 8.28316C9.39795 8.12677 9.52472 8 9.68111 8V8C9.83749 8 9.96426 8.12677 9.96426 8.28316V9.98209C9.96426 10.1385 9.83749 10.2652 9.68111 10.2652V10.2652C9.52472 10.2652 9.39795 10.1385 9.39795 9.98209V8.28316Z" fill="#2D2C2C"/>
<path d="M10.2471 8.28316C10.2471 8.12677 10.3738 8 10.5302 8V8C10.6866 8 10.8134 8.12677 10.8134 8.28316V9.98209C10.8134 10.1385 10.6866 10.2652 10.5302 10.2652V10.2652C10.3738 10.2652 10.2471 10.1385 10.2471 9.98209V8.28316Z" fill="#2D2C2C"/>
<path d="M11.0967 8.28316C11.0967 8.12677 11.2235 8 11.3798 8V8C11.5362 8 11.663 8.12677 11.663 8.28316V9.98209C11.663 10.1385 11.5362 10.2652 11.3798 10.2652V10.2652C11.2235 10.2652 11.0967 10.1385 11.0967 9.98209V8.28316Z" fill="#2D2C2C"/>
<path d="M11.9463 8.28316C11.9463 8.12677 12.0731 8 12.2294 8V8C12.3858 8 12.5126 8.12677 12.5126 8.28316V9.98209C12.5126 10.1385 12.3858 10.2652 12.2294 10.2652V10.2652C12.0731 10.2652 11.9463 10.1385 11.9463 9.98209V8.28316Z" fill="#2D2C2C"/>
<path d="M12.7959 8.28316C12.7959 8.12677 12.9227 8 13.0791 8V8C13.2354 8 13.3622 8.12677 13.3622 8.28316V12.2473C13.3622 12.4037 13.2354 12.5305 13.0791 12.5305V12.5305C12.9227 12.5305 12.7959 12.4037 12.7959 12.2473V8.28316Z" fill="#2D2C2C"/>
<path d="M6.11337 8C6.08406 8 6.05752 8.01106 6.03761 8.02917C6.01438 8.04991 6 8.07991 6 8.11323V27.1414C6 27.2039 6.05088 27.2546 6.11337 27.2546H20.6107C20.6732 27.2546 20.7241 27.2039 20.7241 27.1414V8.11323C20.7241 8.05074 20.6732 8 20.6107 8H14.9194C14.3719 8 13.9284 8.44368 13.9284 8.99105C13.9284 9.53842 14.3719 9.98209 14.9194 9.98209H18.4589L18.4589 26.5C14.7226 28.3984 12.6041 28.0632 8.26525 26V8.11323C8.26525 8.05074 8.21437 8 8.15188 8H6.11337Z" fill="#2D2C2C"/>
<path d="M8.2876 17.6796H18.4493V26.074C14.4704 27.1346 12.3256 26.8372 8.2876 25.95V17.6796Z" fill="#3EA8A6"/>
</g>
</svg>
