<svg width="17" height="24" viewBox="0 0 17 24" fill="none" xmlns="http://www.w3.org/2000/svg">
<path d="M8.5 24C13.1944 24 17 20.2626 17 15.6522C17 13.5141 16.2917 12.5217 14.8356 10.087C13.2792 8.37913 11.0174 7.30435 8.5 7.30435C5.98258 7.30435 3.72077 8.37913 2.16436 10.087C1.0625 11.8261 0 13.5141 0 15.6522C0 20.2626 3.80558 24 8.5 24Z" fill="#3EA8A6"/>
<path d="M2.16436 10.087C3.72077 8.37913 5.98258 7.30435 8.5 7.30435C11.0174 7.30435 13.2792 8.37913 14.8356 10.087L8.66936 0.269643C8.59096 0.144813 8.40904 0.144813 8.33064 0.269643L2.16436 10.087Z" fill="#3EA8A6"/>
</svg>
