<svg width="25" height="25" viewBox="0 0 25 25" fill="none" xmlns="http://www.w3.org/2000/svg">
<mask id="mask0_733_1347" style="mask-type:alpha" maskUnits="userSpaceOnUse" x="0" y="0" width="25" height="25">
<circle cx="12.5" cy="12.5" r="12.5" fill="#D9D9D9"/>
</mask>
<g mask="url(#mask0_733_1347)">
<rect x="5" y="16.228" width="4.07895" height="9.51754" rx="0.5" fill="#2D2C2C"/>
<path d="M9.75879 19.1074C9.75879 18.8313 9.98265 18.6074 10.2588 18.6074H13.3377C13.6139 18.6074 13.8377 18.8313 13.8377 19.1074V27.625C13.8377 27.9011 13.6139 28.125 13.3377 28.125H10.2588C9.98265 28.125 9.75879 27.9011 9.75879 27.625V19.1074Z" fill="#3EA8A6"/>
<rect x="14.5176" y="16.228" width="4.07895" height="9.51754" rx="0.5" fill="#2D2C2C"/>
<path fill-rule="evenodd" clip-rule="evenodd" d="M10.2588 8.75C9.98265 8.75 9.75879 8.97386 9.75879 9.25V15.228H13.8377V9.25C13.8377 8.97386 13.6139 8.75 13.3377 8.75H10.2588ZM13.8377 16.228H9.75879V19.3076C9.75879 19.5837 9.98265 19.8076 10.2588 19.8076H13.3377C13.6139 19.8076 13.8377 19.5837 13.8377 19.3076V16.228Z" fill="#2D2C2C"/>
<path d="M5.24121 15.625L18.9912 15.625" stroke="#2D2C2C" stroke-width="0.5"/>
</g>
</svg>
