<svg width="25" height="22" viewBox="0 0 25 22" fill="none" xmlns="http://www.w3.org/2000/svg">
<mask id="mask0_720_1201" style="mask-type:alpha" maskUnits="userSpaceOnUse" x="0" y="0" width="25" height="22">
<ellipse cx="12.375" cy="11" rx="12.375" ry="11" fill="#EB3838"/>
</mask>
<g mask="url(#mask0_720_1201)">
<path d="M3.66699 4.67492C3.66699 4.62429 3.70803 4.58325 3.75866 4.58325H5.60793C5.65856 4.58325 5.6996 4.62429 5.6996 4.67492V5.90184C5.6996 5.95247 5.74064 5.99351 5.79127 5.99351H19.1294C19.1901 5.99351 19.2341 6.05146 19.2177 6.10991L14.5263 22.8497C14.5152 22.8892 14.4792 22.9166 14.4381 22.9166H3.75866C3.70803 22.9166 3.66699 22.8755 3.66699 22.8249V4.67492Z" fill="#2D2C2C"/>
<path d="M19.7816 4.6502C19.7927 4.61062 19.8287 4.58325 19.8699 4.58325H20.992C21.0426 4.58325 21.0837 4.62429 21.0837 4.67492V22.8249C21.0837 22.8755 21.0426 22.9166 20.992 22.9166H14.7878C14.7271 22.9166 14.6832 22.8587 14.6996 22.8002L19.7816 4.6502Z" fill="#2D2C2C"/>
<path d="M14.47 8.65178H16.5C13.5648 13.6101 13.0034 18.5684 13.0034 24.2351H9.33858C9.33884 20.6934 10.07 13.6101 14.47 8.65178Z" fill="#3EA8A6"/>
<path d="M11.733 8.58643H13.9349C10.9997 13.5448 10.2663 18.5031 10.2663 24.1698H6.60155C6.60181 20.6281 7.33301 13.5448 11.733 8.58643Z" fill="#DD8629"/>
<path d="M9.17486 8.58643H11.1749C8.23965 13.5448 7.92304 17.8364 7.92304 23.503H4.25825C5.28279 20.6958 4.77486 13.5448 9.17486 8.58643Z" fill="#3EA8A6"/>
<path d="M11.733 8.58643H13.9349C10.9997 13.5448 10.2663 18.5031 10.2663 24.1698H6.60155C6.60181 20.6281 7.33301 13.5448 11.733 8.58643Z" fill="#3EA8A6"/>
<path d="M7.65055 22.9166H8.35414C8.35414 17.2755 8.35255 13.5223 11.1749 8.58643H10.9096C7.52347 13.8429 7.65079 19.3795 7.65055 22.9166Z" fill="#147B79"/>
<path d="M10.4713 22.9166H11.1749C11.1749 17.2755 11.1126 13.5223 13.9349 8.58643H13.68C10.2939 13.8429 10.4715 19.3795 10.4713 22.9166Z" fill="#147B79"/>
<path d="M13.0146 22.9166L13.9951 22.9166C13.9951 17.2755 13.6777 13.5877 16.5 8.65178H16.2242C12.8381 13.9082 13.0148 19.3795 13.0146 22.9166Z" fill="#147B79"/>
</g>
</svg>
