<svg width="20" height="20" viewBox="0 0 20 20" fill="none" xmlns="http://www.w3.org/2000/svg">
<mask id="mask0_726_1252" style="mask-type:alpha" maskUnits="userSpaceOnUse" x="0" y="0" width="20" height="20">
<circle cx="10" cy="10" r="10" fill="#FFEF5F"/>
</mask>
<g mask="url(#mask0_726_1252)">
<path d="M7.75924 11.8897C11.1103 10.366 13.5439 6.92524 17.6791 6.98828C17.7772 6.98977 17.8081 7.11911 17.7259 7.17252C13.3105 10.041 15.3032 13.3637 21 13C22.1565 13.4855 26.8113 12.6291 21 13L20.7596 18.4552C14.4146 20.6641 10.8589 21.4897 4.50042 19.5001C2.91681 19.9161 -1.37604 14.282 -0.500018 13.5001C0.376006 12.7183 1.9265 9.21422 5.7594 9.45523C3.87537 10.8066 4.3224 13.4524 7.75924 11.8897Z" fill="#3EA8A6"/>
</g>
</svg>
