<svg width="14" height="14" viewBox="0 0 14 14" fill="none" xmlns="http://www.w3.org/2000/svg">
<path d="M10.1613 6.29881H9.28407C9.12106 6.29881 8.97673 6.40411 8.92697 6.55934L8.10948 9.1095C8.0319 9.35151 8.21244 9.59897 8.46658 9.59897H8.91432C9.05744 9.59897 9.17135 9.71889 9.16399 9.86182L9.02538 12.5539C9.02192 12.6211 9.11248 12.6456 9.14333 12.5858L11.0667 8.85946C11.1955 8.60987 11.0143 8.31247 10.7335 8.31247H10.3591C10.1886 8.31247 10.0681 8.14556 10.1218 7.98374L10.5173 6.79191C10.5978 6.54918 10.4171 6.29881 10.1613 6.29881Z" fill="#373030"/>
<path opacity="0.54" d="M11.2725 9.3639L11.5301 8.86496C11.7577 8.42387 11.4375 7.89827 10.9412 7.89827H10.5867L10.9657 6.75605C11.108 6.32708 10.7886 5.88462 10.3367 5.88462H9.19189C8.90382 5.88462 8.64874 6.07071 8.5608 6.34503L7.66222 9.14815C7.63902 9.22051 7.62888 9.29315 7.63023 9.3639L3.14793 9.3639C1.40938 9.3639 0 7.95453 0 6.21597C0 4.47742 1.40938 3.06804 3.14793 3.06804C3.5249 3.06804 3.8864 3.13431 4.22141 3.25582C4.88237 1.6391 6.47088 0.5 8.32545 0.5C10.7731 0.5 12.7574 2.48425 12.7574 4.93195C12.7574 5.03978 12.7535 5.14671 12.746 5.25261C13.4862 5.59343 14 6.34174 14 7.21006C14 8.39959 13.0357 9.3639 11.8462 9.3639H11.2725Z" fill="#373030"/>
<path d="M7.55416 12.7455L7.12422 11.8491L6.69431 12.7454C6.65163 12.8201 6.62718 12.907 6.62718 12.9997C6.62718 13.2793 6.84971 13.5059 7.12422 13.5059C7.39873 13.5059 7.62126 13.2793 7.62126 12.9997C7.62126 12.907 7.59683 12.8202 7.55416 12.7455Z" fill="#373030"/>
<path d="M6.06302 11.0886L5.6331 10.1923L5.20316 11.0887C5.16049 11.1634 5.13606 11.2502 5.13606 11.3429C5.13606 11.6225 5.35859 11.8491 5.6331 11.8491C5.90761 11.8491 6.13014 11.6225 6.13014 11.3429C6.13014 11.2502 6.1057 11.1633 6.06302 11.0886Z" fill="#373030"/>
<path d="M4.57191 12.7455L4.14198 11.8491L3.71206 12.7454C3.66938 12.8201 3.64493 12.907 3.64493 12.9997C3.64493 13.2793 3.86747 13.5059 4.14197 13.5059C4.41648 13.5059 4.63902 13.2793 4.63902 12.9997C4.63902 12.907 4.61458 12.8202 4.57191 12.7455Z" fill="#373030"/>
<path d="M3.08077 11.0886L2.65085 10.1923L2.22091 11.0887C2.17824 11.1634 2.15381 11.2502 2.15381 11.3429C2.15381 11.6225 2.37634 11.8491 2.65085 11.8491C2.92536 11.8491 3.14789 11.6225 3.14789 11.3429C3.14789 11.2502 3.12345 11.1634 3.08077 11.0886Z" fill="#373030"/>
</svg>
